<?xml version="1.0" encoding="iso-8859-1"?>
<!-- Generator: Adobe Illustrator 19.0.0, SVG Export Plug-In . SVG Version: 6.00 Build 0)  -->
<svg version="1.1" id="Layer_1" xmlns="http://www.w3.org/2000/svg" xmlns:xlink="http://www.w3.org/1999/xlink" x="0px" y="0px"
	 viewBox="0 0 512.349 512.349" style="enable-background:new 0 0 512.349 512.349;" xml:space="preserve">
<g transform="translate(1 1)">
	<g>
		<path style="fill:#FFE100;" d="M264.387,127.175c-5.12,0-8.533-3.413-8.533-8.533v-51.2c0-5.12,3.413-8.533,8.533-8.533
			s8.533,3.413,8.533,8.533v51.2C272.92,123.761,268.653,127.175,264.387,127.175z"/>
		<path style="fill:#FFE100;" d="M372.76,172.401c-2.56,0-4.267-0.853-5.973-2.56c-3.413-3.413-3.413-8.533,0-11.947l23.893-23.893
			c3.413-3.413,8.533-3.413,11.947,0c3.413,3.413,3.413,8.533,0,11.947l-23.893,23.893
			C377.027,171.548,375.32,172.401,372.76,172.401z"/>
		<path style="fill:#FFE100;" d="M421.4,123.761c-2.56,0-4.267-0.853-5.973-2.56c-3.413-3.413-3.413-8.533,0-11.947l5.973-5.973
			c3.413-3.413,8.533-3.413,11.947,0c3.413,3.413,3.413,8.533,0,11.947l-5.973,5.973C425.667,122.908,423.107,123.761,421.4,123.761
			z"/>
		<path style="fill:#FFE100;" d="M264.387,41.841c-5.12,0-8.533-3.413-8.533-8.533v-8.533c0-5.12,3.413-8.533,8.533-8.533
			s8.533,3.413,8.533,8.533v8.533C272.92,38.428,268.653,41.841,264.387,41.841z"/>
		<path style="fill:#FFE100;" d="M156.013,172.401c-2.56,0-4.267-0.853-5.973-2.56l-23.893-23.893
			c-3.413-3.413-3.413-8.533,0-11.947c3.413-3.413,8.533-3.413,11.947,0l23.893,23.893c3.413,3.413,3.413,8.533,0,11.947
			C160.28,171.548,157.72,172.401,156.013,172.401z"/>
		<path style="fill:#FFE100;" d="M107.373,123.761c-2.56,0-4.267-0.853-5.973-2.56l-5.973-5.973c-3.413-3.413-3.413-8.533,0-11.947
			s8.533-3.413,11.947,0l5.973,5.973c3.413,3.413,3.413,8.533,0,11.947C111.64,122.908,109.933,123.761,107.373,123.761z"/>
		<path style="fill:#FFE100;" d="M101.4,272.241c0-84.48,69.12-153.6,153.6-153.6s153.6,69.12,153.6,153.6H101.4z"/>
	</g>
	<path style="fill:#FFA800;" d="M255,118.641c-4.267,0-8.533,0-12.8,0.853c78.507,5.973,140.8,72.533,140.8,152.747h25.6
		C408.6,187.761,339.48,118.641,255,118.641"/>
	<path style="fill:#FFFFFF;" d="M255,118.641c4.267,0,8.533,0,12.8,0.853C189.293,125.468,127,192.028,127,272.241h-25.6
		C101.4,187.761,170.52,118.641,255,118.641"/>
	<g>
		<path style="fill:#FFE100;" d="M502.467,289.308H7.533c-5.12,0-8.533-3.413-8.533-8.533s3.413-8.533,8.533-8.533h494.933
			c5.12,0,8.533,3.413,8.533,8.533S507.587,289.308,502.467,289.308z"/>
		<path style="fill:#FFE100;" d="M502.467,340.508c-1.707,0-2.56,0-3.413-0.853l-18.773-9.387
			c-7.68-3.413-16.213-4.267-23.893-0.853l-11.093,4.267c-12.8,5.12-26.453,4.267-38.4-1.707l-1.707-0.853
			c-4.267-1.707-5.973-6.827-4.267-11.093s6.827-5.973,11.093-4.267l1.707,0.853c7.68,3.413,16.213,4.267,23.893,0.853l11.093-4.267
			c11.947-5.12,26.453-4.267,38.4,1.707l18.773,9.387c4.267,1.707,5.973,6.827,3.413,11.093
			C508.44,338.801,505.88,340.508,502.467,340.508z"/>
		<path style="fill:#FFE100;" d="M289.133,336.241c-6.827,0-14.507-1.707-20.48-5.12c-8.533-4.267-17.92-4.267-26.453,0
			c-4.267,1.707-9.387,0-11.093-3.413c-1.707-4.267,0-9.387,3.413-11.093c12.8-6.827,29.013-6.827,41.813,0
			c8.533,4.267,17.92,4.267,26.453,0c12.8-6.827,29.013-6.827,41.813,0c4.267,1.707,5.973,6.827,3.413,11.093
			c-1.707,4.267-6.827,5.973-11.093,3.413c-8.533-4.267-17.92-4.267-26.453,0C303.64,334.535,295.96,336.241,289.133,336.241z"/>
		<path style="fill:#FFE100;" d="M7.533,340.508c-3.413,0-6.827-1.707-7.68-5.12c-1.707-4.267,0-9.387,5.12-11.093l26.453-11.093
			c11.947-5.12,26.453-4.267,38.4,1.707l1.707,0.853c8.533,4.267,17.92,4.267,26.453,0c12.8-6.827,29.013-6.827,41.813,0
			c8.533,4.267,17.92,4.267,26.453,0c4.267-1.707,9.387,0,11.093,3.413c1.707,4.267,0,9.387-3.413,11.093
			c-12.8,6.827-29.013,6.827-41.813,0c-8.533-4.267-17.92-4.267-26.453,0c-12.8,6.827-29.013,6.827-41.813,0l-1.707-0.853
			c-7.68-3.413-16.213-4.267-23.893-0.853L11.8,339.655C9.24,340.508,8.387,340.508,7.533,340.508z"/>
		<path style="fill:#FFE100;" d="M427.373,388.295c-6.827,0-14.507-1.707-20.48-5.12l-1.707-0.853
			c-8.533-4.267-17.92-4.267-26.453,0c-12.8,6.827-29.013,6.827-41.813,0l7.68-15.36l0,0c8.533,4.267,17.92,4.267,26.453,0
			c12.8-6.827,29.013-6.827,41.813,0l1.707,0.853c7.68,3.413,16.213,4.267,23.893,0.853l11.093-4.267
			c4.267-1.707,9.387,0,11.093,5.12c1.707,4.267,0,9.387-5.12,11.093l-11.093,4.267C439.32,386.588,433.347,388.295,427.373,388.295
			z"/>
		<path style="fill:#FFE100;" d="M220.867,387.441c-6.827,0-14.507-1.707-20.48-5.12c-8.533-4.267-17.92-4.267-26.453,0
			c-12.8,6.827-29.013,6.827-41.813,0c-4.267-1.707-5.973-6.827-3.413-11.093c2.56-4.267,6.827-5.973,11.093-3.413
			c8.533,4.267,17.92,4.267,26.453,0c12.8-6.827,29.013-6.827,41.813,0c8.533,4.267,17.92,4.267,26.453,0
			c4.267-1.707,9.387,0,11.093,3.413c1.707,4.267,0,9.387-3.413,11.093C235.373,385.735,227.693,387.441,220.867,387.441z"/>
		<path style="fill:#FFE100;" d="M7.533,391.708c-3.413,0-6.827-1.707-7.68-5.12c-1.707-4.267,0-9.387,5.12-11.093l26.453-11.093
			c11.947-5.12,26.453-4.267,38.4,1.707l1.707,0.853c4.267,1.707,5.973,6.827,4.267,11.093s-6.827,5.973-11.093,4.267L63,381.468
			c-7.68-3.413-16.213-4.267-23.893-0.853l-26.453,11.093C9.24,391.708,8.387,391.708,7.533,391.708z"/>
		<path style="fill:#FFE100;" d="M502.467,442.908c-1.707,0-2.56,0-3.413-0.853l-18.773-9.387
			c-7.68-3.413-16.213-4.267-23.893-0.853l-11.093,4.267c-12.8,5.12-26.453,4.267-38.4-1.707l-1.707-0.853
			c-4.267-1.707-5.973-6.827-4.267-11.093c1.707-4.267,6.827-5.973,11.093-4.267l1.707,0.853c7.68,3.413,16.213,4.267,23.893,0.853
			l11.093-4.267c11.947-5.12,26.453-4.267,38.4,1.707l18.773,9.387c4.267,1.707,5.973,6.827,3.413,11.093
			C508.44,441.201,505.88,442.908,502.467,442.908z"/>
		<path style="fill:#FFE100;" d="M289.133,438.641c-6.827,0-14.507-1.707-20.48-5.12c-8.533-4.267-17.92-4.267-26.453,0
			c-4.267,1.707-9.387,0-11.093-3.413c-1.707-4.267,0-9.387,3.413-11.093c12.8-6.827,29.013-6.827,41.813,0
			c8.533,4.267,17.92,4.267,26.453,0c4.267-1.707,9.387,0,11.093,3.413c1.707,4.267,0,9.387-3.413,11.093
			C303.64,436.935,295.96,438.641,289.133,438.641z"/>
		<path style="fill:#FFE100;" d="M84.333,438.641c-6.827,0-14.507-1.707-20.48-5.12l-1.707-0.853
			c-7.68-3.413-16.213-4.267-23.893-0.853c-4.267,1.707-9.387,0-11.093-5.12c-1.707-4.267,0-9.387,5.12-11.093
			c11.947-5.12,26.453-4.267,38.4,1.707l1.707,0.853c8.533,4.267,17.92,4.267,26.453,0c12.8-6.827,29.013-6.827,41.813,0
			c4.267,1.707,5.973,6.827,3.413,11.093c-1.707,4.267-6.827,5.973-11.093,3.413c-8.533-4.267-17.92-4.267-26.453,0
			C98.84,436.935,91.16,438.641,84.333,438.641z"/>
		<path style="fill:#FFE100;" d="M502.467,494.108c-1.707,0-2.56,0-3.413-0.853l-18.773-9.387
			c-7.68-3.413-16.213-4.267-23.893-0.853l-11.093,4.267c-11.947,5.12-26.453,4.267-38.4-1.707
			c-4.267-1.707-5.973-6.827-3.413-11.093c1.707-4.267,6.827-5.973,11.093-3.413c7.68,3.413,16.213,4.267,23.893,0.853l11.093-4.267
			c11.947-5.12,26.453-4.267,38.4,1.707l18.773,9.387c4.267,1.707,5.973,6.827,3.413,11.093
			C508.44,492.401,505.88,494.108,502.467,494.108z"/>
		<path style="fill:#FFE100;" d="M289.133,489.841c-6.827,0-14.507-1.707-20.48-5.12l7.68-15.36c8.533,4.267,17.92,4.267,26.453,0
			c12.8-6.827,29.013-6.827,41.813,0c4.267,1.707,5.973,6.827,3.413,11.093s-6.827,5.973-11.093,3.413
			c-8.533-4.267-17.92-4.267-26.453,0C303.64,488.135,295.96,489.841,289.133,489.841z"/>
		<path style="fill:#FFE100;" d="M152.6,489.841c-6.827,0-14.507-1.707-20.48-5.12c-4.267-1.707-5.973-6.827-3.413-11.093
			c2.56-4.267,6.827-5.973,11.093-3.413c8.533,4.267,17.92,4.267,26.453,0c12.8-6.827,29.013-6.827,41.813,0
			c4.267,1.707,5.973,6.827,3.413,11.093s-6.827,5.973-11.093,3.413c-8.533-4.267-17.92-4.267-26.453,0
			C167.107,488.135,159.427,489.841,152.6,489.841z"/>
		<path style="fill:#FFE100;" d="M7.533,494.108c-3.413,0-6.827-1.707-7.68-5.12c-1.707-4.267,0-9.387,5.12-11.093l26.453-11.093
			c11.947-5.12,26.453-4.267,38.4,1.707l1.707,0.853c4.267,1.707,5.973,6.827,4.267,11.093s-6.827,5.973-11.093,4.267L63,483.868
			c-7.68-3.413-16.213-4.267-23.893-0.853l-26.453,11.093C9.24,494.108,8.387,494.108,7.533,494.108z"/>
	</g>
	<path d="M255,127.175c-5.12,0-8.533-3.413-8.533-8.533v-51.2c0-5.12,3.413-8.533,8.533-8.533s8.533,3.413,8.533,8.533v51.2
		C263.533,123.761,260.12,127.175,255,127.175z"/>
	<path d="M363.373,172.401c-2.56,0-4.267-0.853-5.973-2.56c-3.413-3.413-3.413-8.533,0-11.947l23.893-23.893
		c3.413-3.413,8.533-3.413,11.947,0c3.413,3.413,3.413,8.533,0,11.947l-23.893,23.893
		C367.64,171.548,365.933,172.401,363.373,172.401z"/>
	<path d="M412.013,123.761c-2.56,0-4.267-0.853-5.973-2.56c-3.413-3.413-3.413-8.533,0-11.947l5.973-5.973
		c3.413-3.413,8.533-3.413,11.947,0c3.413,3.413,3.413,8.533,0,11.947l-5.973,5.973C416.28,122.908,413.72,123.761,412.013,123.761z
		"/>
	<path d="M255,41.841c-5.12,0-8.533-3.413-8.533-8.533v-8.533c0-5.12,3.413-8.533,8.533-8.533s8.533,3.413,8.533,8.533v8.533
		C263.533,38.428,260.12,41.841,255,41.841z"/>
	<path d="M408.6,280.775L408.6,280.775H101.4c-5.12,0-8.533-3.413-8.533-8.533c0-89.6,72.533-162.133,162.133-162.133
		c88.747,0,161.28,71.68,162.133,160.427c0,0.853,0,0.853,0,1.707C417.133,277.361,413.72,280.775,408.6,280.775z M109.933,263.708
		h290.133C395.8,187.761,332.653,127.175,255,127.175S114.2,187.761,109.933,263.708z"/>
	<path d="M146.627,172.401c-2.56,0-4.267-0.853-5.973-2.56l-23.893-23.893c-3.413-3.413-3.413-8.533,0-11.947s8.533-3.413,11.947,0
		l23.893,23.893c3.413,3.413,3.413,8.533,0,11.947C150.893,171.548,148.333,172.401,146.627,172.401z"/>
	<path d="M97.987,123.761c-2.56,0-4.267-0.853-5.973-2.56l-5.973-5.973c-3.413-3.413-3.413-8.533,0-11.947s8.533-3.413,11.947,0
		l5.973,5.973c3.413,3.413,3.413,8.533,0,11.947C102.253,122.908,100.547,123.761,97.987,123.761z"/>
	<path d="M502.467,280.775H7.533c-5.12,0-8.533-3.413-8.533-8.533s3.413-8.533,8.533-8.533h494.933c5.12,0,8.533,3.413,8.533,8.533
		S507.587,280.775,502.467,280.775z"/>
	<path d="M502.467,331.975c-1.707,0-2.56,0-3.413-0.853l-18.773-9.387c-7.68-3.413-16.213-4.267-23.893-0.853l-11.093,4.267
		c-12.8,5.12-26.453,4.267-38.4-1.707l-1.707-0.853c-4.267-1.707-5.973-6.827-4.267-11.093s6.827-5.973,11.093-4.267l1.707,0.853
		c7.68,3.413,16.213,4.267,23.893,0.853l11.093-4.267c11.947-5.12,26.453-4.267,38.4,1.707l18.773,9.387
		c4.267,1.707,5.973,6.827,3.413,11.093C508.44,330.268,505.88,331.975,502.467,331.975z"/>
	<path d="M289.133,327.708c-6.827,0-14.507-1.707-20.48-5.12c-8.533-4.267-17.92-4.267-26.453,0c-4.267,1.707-9.387,0-11.093-3.413
		c-1.707-4.267,0-9.387,3.413-11.093c12.8-6.827,29.013-6.827,41.813,0c8.533,4.267,17.92,4.267,26.453,0
		c12.8-6.827,29.013-6.827,41.813,0c4.267,1.707,5.973,6.827,3.413,11.093c-1.707,4.267-6.827,5.973-11.093,3.413
		c-8.533-4.267-17.92-4.267-26.453,0C303.64,326.001,295.96,327.708,289.133,327.708z"/>
	<path d="M7.533,331.975c-3.413,0-6.827-1.707-7.68-5.12c-1.707-4.267,0-9.387,5.12-11.093l26.453-11.093
		c11.947-5.12,26.453-4.267,38.4,1.707l1.707,0.853c8.533,4.267,17.92,4.267,26.453,0c12.8-6.827,29.013-6.827,41.813,0
		c8.533,4.267,17.92,4.267,26.453,0c4.267-1.707,9.387,0,11.093,3.413c1.707,4.267,0,9.387-3.413,11.093
		c-12.8,6.827-29.013,6.827-41.813,0c-8.533-4.267-17.92-4.267-26.453,0c-12.8,6.827-29.013,6.827-41.813,0l-1.707-0.853
		c-7.68-3.413-16.213-4.267-23.893-0.853L11.8,331.121C9.24,331.975,8.387,331.975,7.533,331.975z"/>
	<path d="M427.373,379.761c-6.827,0-14.507-1.707-20.48-5.12l-1.707-0.853c-8.533-4.267-17.92-4.267-26.453,0
		c-12.8,6.827-29.013,6.827-41.813,0l7.68-15.36l0,0c8.533,4.267,17.92,4.267,26.453,0c12.8-6.827,29.013-6.827,41.813,0
		l1.707,0.853c7.68,3.413,16.213,4.267,23.893,0.853l11.093-4.267c4.267-1.707,9.387,0,11.093,5.12c1.707,4.267,0,9.387-5.12,11.093
		l-11.093,4.267C439.32,378.055,433.347,379.761,427.373,379.761z"/>
	<path d="M220.867,378.908c-6.827,0-14.507-1.707-20.48-5.12c-8.533-4.267-17.92-4.267-26.453,0c-12.8,6.827-29.013,6.827-41.813,0
		c-4.267-1.707-5.973-6.827-3.413-11.093c1.707-4.267,6.827-5.973,11.093-3.413c8.533,4.267,17.92,4.267,26.453,0
		c12.8-6.827,29.013-6.827,41.813,0c8.533,4.267,17.92,4.267,26.453,0c4.267-1.707,9.387,0,11.093,3.413
		c1.707,3.413,0,9.387-3.413,11.093C235.373,377.201,227.693,378.908,220.867,378.908z"/>
	<path d="M7.533,383.175c-3.413,0-6.827-1.707-7.68-5.12c-1.707-4.267,0-9.387,5.12-11.093l26.453-11.093
		c11.947-5.12,26.453-4.267,38.4,1.707l1.707,0.853c4.267,1.707,5.973,6.827,4.267,11.093c-1.707,4.267-6.827,5.973-11.093,4.267
		L63,372.935c-7.68-3.413-16.213-4.267-23.893-0.853l-26.453,11.093C9.24,383.175,8.387,383.175,7.533,383.175z"/>
	<path d="M502.467,434.375c-1.707,0-2.56,0-3.413-0.853l-18.773-9.387c-7.68-3.413-16.213-4.267-23.893-0.853l-11.093,4.267
		c-12.8,5.12-26.453,4.267-38.4-1.707l-1.707-0.853c-4.267-1.707-5.973-6.827-4.267-11.093s6.827-5.973,11.093-4.267l1.707,0.853
		c7.68,3.413,16.213,4.267,23.893,0.853l11.093-4.267c11.947-5.12,26.453-4.267,38.4,1.707l18.773,9.387
		c4.267,1.707,5.973,6.827,3.413,11.093C508.44,432.668,505.88,434.375,502.467,434.375z"/>
	<path d="M289.133,430.108c-6.827,0-14.507-1.707-20.48-5.12c-8.533-4.267-17.92-4.267-26.453,0c-4.267,1.707-9.387,0-11.093-3.413
		c-1.707-4.267,0-9.387,3.413-11.093c12.8-6.827,29.013-6.827,41.813,0c8.533,4.267,17.92,4.267,26.453,0
		c4.267-1.707,9.387,0,11.093,3.413c1.707,4.267,0,9.387-3.413,11.093C303.64,428.401,295.96,430.108,289.133,430.108z"/>
	<path d="M84.333,430.108c-6.827,0-14.507-1.707-20.48-5.12l-1.707-0.853c-7.68-3.413-16.213-4.267-23.893-0.853
		c-4.267,1.707-9.387,0-11.093-5.12c-1.707-4.267,0-9.387,5.12-11.093c11.947-5.12,26.453-4.267,38.4,1.707l1.707,0.853
		c8.533,4.267,17.92,4.267,26.453,0c12.8-6.827,29.013-6.827,41.813,0c4.267,1.707,5.973,6.827,3.413,11.093
		c-1.707,4.267-6.827,5.973-11.093,3.413c-8.533-4.267-17.92-4.267-26.453,0C98.84,428.401,91.16,430.108,84.333,430.108z"/>
	<path d="M502.467,485.575c-1.707,0-2.56,0-3.413-0.853l-18.773-9.387c-7.68-3.413-16.213-4.267-23.893-0.853l-11.093,4.267
		c-11.947,5.12-26.453,4.267-38.4-1.707c-4.267-1.707-5.973-6.827-3.413-11.093c1.707-4.267,6.827-5.973,11.093-3.413
		c7.68,3.413,16.213,4.267,23.893,0.853l11.093-4.267c11.947-5.12,26.453-4.267,38.4,1.707l18.773,9.387
		c4.267,1.707,5.973,6.827,3.413,11.093C508.44,483.868,505.88,485.575,502.467,485.575z"/>
	<path d="M289.133,481.308c-6.827,0-14.507-1.707-20.48-5.12l7.68-15.36c8.533,4.267,17.92,4.267,26.453,0
		c12.8-6.827,29.013-6.827,41.813,0c4.267,1.707,5.973,6.827,3.413,11.093s-6.827,5.973-11.093,3.413
		c-8.533-4.267-17.92-4.267-26.453,0C303.64,479.601,295.96,481.308,289.133,481.308z"/>
	<path d="M152.6,481.308c-6.827,0-14.507-1.707-20.48-5.12c-4.267-1.707-5.973-6.827-3.413-11.093
		c2.56-4.267,6.827-5.973,11.093-3.413c8.533,4.267,17.92,4.267,26.453,0c12.8-6.827,29.013-6.827,41.813,0
		c4.267,1.707,5.973,6.827,3.413,11.093c-2.56,4.267-6.827,5.973-11.093,3.413c-8.533-4.267-17.92-4.267-26.453,0
		C167.107,479.601,159.427,481.308,152.6,481.308z"/>
	<path d="M7.533,485.575c-3.413,0-6.827-1.707-7.68-5.12c-1.707-4.267,0-9.387,5.12-11.093l26.453-11.093
		c11.947-5.12,26.453-4.267,38.4,1.707l1.707,0.853c4.267,1.707,5.973,6.827,4.267,11.093s-6.827,5.973-11.093,4.267L63,475.335
		c-7.68-3.413-16.213-4.267-23.893-0.853l-26.453,11.093C9.24,485.575,8.387,485.575,7.533,485.575z"/>
</g>
<g>
</g>
<g>
</g>
<g>
</g>
<g>
</g>
<g>
</g>
<g>
</g>
<g>
</g>
<g>
</g>
<g>
</g>
<g>
</g>
<g>
</g>
<g>
</g>
<g>
</g>
<g>
</g>
<g>
</g>
</svg>
